<svg width="64" height="64" viewBox="0 0 64 64" fill="none" xmlns="http://www.w3.org/2000/svg">
<path d="M57.1293 49.3168C56.1917 51.4829 55.082 53.4769 53.796 55.31C52.0432 57.809 50.608 59.5388 49.502 60.4994C47.7876 62.0762 45.9506 62.8837 43.9834 62.9296C42.5713 62.9296 40.8683 62.5278 38.8859 61.7126C36.897 60.9013 35.0692 60.4994 33.3978 60.4994C31.6451 60.4994 29.7652 60.9013 27.7546 61.7126C25.7407 62.5278 24.1185 62.9526 22.8782 62.9947C20.9917 63.075 19.1115 62.2446 17.2347 60.4994C16.0369 59.4547 14.5386 57.6636 12.7437 55.1264C10.8179 52.4168 9.23467 49.2747 7.99433 45.6926C6.66597 41.8235 6.00006 38.0767 6.00006 34.4495C6.00006 30.2946 6.89789 26.7109 8.69621 23.7078C10.1095 21.2956 11.9898 19.3929 14.343 17.9959C16.6963 16.599 19.239 15.8872 21.9772 15.8417C23.4755 15.8417 25.4404 16.3051 27.882 17.216C30.3168 18.1299 31.8801 18.5933 32.5655 18.5933C33.078 18.5933 34.8147 18.0514 37.7588 16.971C40.543 15.9691 42.8928 15.5543 44.8177 15.7177C50.0341 16.1387 53.953 18.195 56.5591 21.8994C51.894 24.7262 49.5862 28.6853 49.6323 33.764C49.6744 37.7201 51.1094 41.0122 53.93 43.626C55.2081 44.8392 56.6356 45.7768 58.2239 46.4427C57.8795 47.4416 57.5159 48.3983 57.1293 49.3168ZM45.166 2.24035C45.166 5.34107 44.0332 8.23618 41.7753 10.9159C39.0504 14.1015 35.7546 15.9423 32.1805 15.6518C32.135 15.2798 32.1086 14.8883 32.1086 14.4769C32.1086 11.5003 33.4044 8.31464 35.7056 5.70995C36.8544 4.39115 38.3157 3.29459 40.0875 2.41984C41.8556 1.55814 43.5281 1.08161 45.101 1C45.1469 1.41452 45.166 1.82906 45.166 2.24031V2.24035Z" fill="black"/>
</svg>
