<svg width="64" height="64" viewBox="0 0 64 64" fill="none" xmlns="http://www.w3.org/2000/svg">
<path d="M16.5793 52.0464L13.5937 57.0712C12.4979 58.8998 10.084 59.5299 8.17826 58.4696C6.2884 57.4093 5.63727 55.0736 6.73307 53.2295L8.94056 49.5262L9.14702 49.1728C9.52817 48.6504 10.4652 47.7437 12.3232 47.9126C12.3232 47.9126 16.7223 48.3737 17.0399 50.5865C17.0399 50.6019 17.0876 51.324 16.5793 52.0464ZM59.0613 39.2305H49.7233C49.088 39.1845 48.802 38.9694 48.7069 38.8464V38.8311L38.7018 22.0815L38.6858 22.0968L38.0824 21.267C37.0977 19.8072 35.5413 23.5259 35.5413 23.5259C33.6833 27.6749 35.8114 32.3771 36.542 33.8062L50.422 57.0866C51.5178 58.9152 53.9318 59.5451 55.8374 58.4848C57.7273 57.4245 58.3785 55.0888 57.2827 53.2449L53.8046 47.421C53.7411 47.2827 53.6141 46.8985 54.3288 46.8985H59.0454C61.237 46.8985 62.9999 45.1775 62.9999 43.0722C63.0156 40.9516 61.2529 39.2305 59.0613 39.2305ZM40.925 44.4398C40.925 44.4398 41.4174 46.8985 39.4959 46.8985H37.5584H4.95438C2.76279 46.8985 1 45.1775 1 43.0722C1 40.9516 2.77867 39.2459 4.95438 39.2459H13.832C15.2612 39.1691 15.6106 38.3701 15.6106 38.3701L27.2038 18.9467C27.4104 18.5779 27.2356 18.2245 27.2038 18.163L23.3764 11.7551C22.2806 9.92651 22.9318 7.57543 24.8217 6.51513C26.7114 5.45484 29.1413 6.08487 30.2371 7.9135L32.0159 10.8946L33.7945 7.92885C34.8903 6.10024 37.3042 5.47021 39.2099 6.5305C41.0998 7.5908 41.7509 9.92651 40.6551 11.7705L24.5357 38.7849C24.4723 38.954 24.4404 39.2151 24.9646 39.2459H34.6044V39.3382C34.5884 39.3228 40.1628 39.3996 40.925 44.4398Z" fill="url(#paint0_linear_1565_48282)"/>
<defs>
<linearGradient id="paint0_linear_1565_48282" x1="32" y1="6" x2="31.3953" y2="67.4953" gradientUnits="userSpaceOnUse">
<stop stop-color="#1AC7FC"/>
<stop offset="1" stop-color="#1D71F2"/>
</linearGradient>
</defs>
</svg>
