<svg width="64" height="64" viewBox="0 0 64 64" fill="none" xmlns="http://www.w3.org/2000/svg">
<path d="M31.8547 30.9161L7.22632 57.0563C7.22724 57.0617 7.22909 57.0662 7.23002 57.0716C7.98531 59.9099 10.5778 62 13.6547 62C14.8847 62 16.0395 61.6675 17.0298 61.0837L17.1084 61.0376L44.8308 45.0408L31.8547 30.9161Z" fill="#EA4335"/>
<path d="M56.7728 26.4651L56.7492 26.4489L44.7808 19.5107L31.2969 31.5092L44.8277 45.0382L56.733 38.1689C58.8203 37.0421 60.2372 34.8417 60.2372 32.3043C60.2372 29.7851 58.8393 27.5956 56.7728 26.4651Z" fill="#FBBC04"/>
<path d="M7.22587 7.4435C7.07782 7.98944 7 8.56128 7 9.1551V55.3458C7 55.9385 7.07689 56.5123 7.22679 57.0563L32.7027 31.5849L7.22587 7.4435Z" fill="#4285F4"/>
<path d="M32.0358 32.2501L44.7834 19.5063L17.0925 3.45161C16.086 2.84877 14.9113 2.50085 13.6543 2.50085C10.5774 2.50085 7.98142 4.59461 7.2259 7.43647C7.22498 7.43925 7.22498 7.4411 7.22498 7.44365L32.0358 32.2501Z" fill="#34A853"/>
</svg>
